<svg width="33" height="169" viewBox="0 0 33 169" fill="none" xmlns="http://www.w3.org/2000/svg">
<path d="M16.5 167.5L16.1455 167.853L16.5 168.209L16.8545 167.853L16.5 167.5ZM32.3545 152.267C32.5492 152.071 32.5484 151.755 32.3526 151.56C32.1568 151.365 31.8402 151.366 31.6455 151.562L32.3545 152.267ZM1.35452 151.562C1.1598 151.366 0.843216 151.365 0.647419 151.56C0.451621 151.755 0.450752 152.071 0.645477 152.267L1.35452 151.562ZM16.8545 167.853L32.3545 152.267L31.6455 151.562L16.1455 167.147L16.8545 167.853ZM16.8545 167.147L1.35452 151.562L0.645477 152.267L16.1455 167.853L16.8545 167.147ZM16 0.5V167.5H17V0.5H16Z" fill="#221714"/>
</svg>
