<?xml version="1.0" encoding="UTF-8"?>
<svg id="_レイヤー_2" data-name="レイヤー 2" xmlns="http://www.w3.org/2000/svg" viewBox="0 0 535.77 898.88">
  <defs>
    <style>
      .cls-1 {
        stroke: #231815;
        stroke-miterlimit: 10;
        stroke-width: .18px;
      }

      .cls-1, .cls-2 {
        fill: #231815;
      }

      .cls-2, .cls-3, .cls-4 {
        stroke-width: 0px;
      }

      .cls-3 {
        fill: #e62066;
      }

      .cls-4 {
        fill: #040000;
      }
    </style>
  </defs>
  <g id="_レイヤー_1-2" data-name="レイヤー 1">
    <g>
      <path class="cls-4" d="M352.49,276.55l-47.57,183.39h-12.8l-82.85-219.89c-3.77-10.31-7.6-16.41-11.49-18.29-3.9-1.88-14.5-2.83-31.82-2.83v-3.39h128.41v3.39c-15.32,0-25.92.82-31.82,2.45-5.9,1.64-8.85,4.84-8.85,9.62,0,2.52.75,5.54,2.26,9.06l59.12,158.12,34.37-131.05-8.01-26.95c-3.04-10.12-6.71-16.19-11.02-18.22-4.31-2.02-15.32-3.04-33.05-3.04v-3.39h129.02v3.39c-15.26,0-25.82.82-31.7,2.45-5.88,1.64-8.81,5.1-8.81,10.38,0,2.77.5,5.54,1.51,8.3l48.58,158.49,41.48-117.36c4.23-12.32,6.35-22.39,6.35-30.19,0-21.38-15.06-32.07-45.19-32.07v-3.39h97.16v3.39c-17.83,0-31.01,9.18-39.54,27.53-1.26,2.77-5.9,15.09-13.93,36.96l-61.76,176.52h-12.43l-55.62-183.39Z"/>
      <path class="cls-2" d="M331.66,711.32v-157.79c0-5.96-.41-9.65-1.23-11.1-.41-.82-1.8-1.64-4.15-2.46-2.36-.82-6.97-1.64-13.82-2.46-6.87-.82-14.39-1.23-22.58-1.23v-2.77h189.85v76.8h-4c0-15.84-3.98-30.95-11.95-45.34-10.61-19.13-25.62-28.69-45.03-28.69-13.28,0-22.61.21-28.02.62-5.42.41-10.88,1.45-16.39,3.09l-2.76,1.24c-1.43,1.45-2.15,5.57-2.15,12.37v72.08c21.79,0,35.34-2.15,40.63-6.45,8.56-6.96,14.06-24.57,16.5-52.84h3.69v121.03h-3.69c0-27.65-4.68-44.95-14.06-51.91-5.91-4.5-20.27-6.76-43.08-6.76v82.58c0,5.97.41,9.76,1.23,11.4.41.83,1.84,1.7,4.3,2.62,2.46.92,7.22,1.7,14.28,2.31,7.07.61,16.64.92,28.72.92v3.07h-128.1v-3.07c8.8,0,16.43-.31,22.88-.92,6.45-.61,10.85-1.39,13.21-2.31,2.35-.92,3.89-2.06,4.61-3.39.72-1.34,1.08-4.88,1.08-10.63Z"/>
      <path class="cls-4" d="M314.96,669.53c11.55-9.74,18.02-15.17,19.41-16.32v62.4s-2.38-.86-2.38-.86c-2.79-16.71-10.04-30.72-21.76-42.01,0,0-9.4-11.04-32.19-16.44-10.04-2.38-19.4-.96-27.66,2.29-10.2,3.89-16.26,11.08-18.19,21.59-1.86,10.14,1.6,19.23,10.38,27.29,7.39,6.87,19.99,13.93,37.78,21.2,22.98,9.7,37.71,17.71,44.2,24.03,10.54,10.5,14.01,25.59,10.4,45.29-3.41,18.58-12.31,31.87-26.69,39.88-12.15,6.84-25.76,8.96-40.83,6.44-24.62-4.12-42.47-22.7-42.47-22.7-11.92,15.08-18.18,22.9-18.78,23.47v-79.01s2.39-.28,2.39-.28c3.77,16.41,8.05,29.58,12.82,39.5,3.97,8.4,8.64,15.37,14.01,20.9,17.85,14.79,33.39,15.73,33.39,15.73,9.2,1.56,18.15.08,26.85-4.45,10.05-5.26,16-12.96,17.86-23.1,2.28-12.38-1.89-23.15-12.49-32.3-7.31-6.27-20.66-13.8-40.08-22.6-19.42-8.8-32.61-16.7-39.58-23.68-10.16-10.45-13.75-23.77-10.78-39.96,2.66-14.5,10.26-25.87,22.8-34.14,12.54-8.26,26.26-11.62,40.97-9.13,0,0,17.09,1.9,40.63,16.96Z"/>
      <path class="cls-4" d="M160.65,814.5h-71.37l-11.4,32.75c-2.95,8.18-4.42,15.25-4.42,21.21,0,9.17,3.46,15.75,10.37,19.72,6.91,3.97,16.67,5.95,29.26,5.95v3.71H19.01v-3.71c17.04,0,30.24-6.43,39.63-19.29,5.19-7.17,11.85-22.01,20-44.51l62.59-174.35h7.41l80,217.37c3.71,10.14,7.41,16.14,11.11,18,3.71,1.85,14.82,2.78,33.33,2.78v3.71h-136.66v-3.71c18.51,0,31.23-.68,38.14-2.04,6.91-1.36,10.37-4.15,10.37-8.37l-.74-3.72-23.55-65.49ZM158.81,810.43l-33.85-94.3-33.84,94.3h67.69Z"/>
      <g>
        <path class="cls-4" d="M404.26,779.13c0,10.73-2.05,18.54-6.16,23.42-4.11,4.88-10.04,7.33-17.82,7.33-8.81,0-16.24-2.66-22.31-7.99-7.25-6.36-10.88-15.5-10.88-27.42s3.67-21.13,11.01-28.53c6.3-6.36,13.05-9.55,20.24-9.55,3.48,0,6.53.63,9.12,1.89,3.34,1.63,6.38,4.29,9.12,7.99l5.45-10.43h.56v32.19l-.89-.56c0-9.51-2.63-17.14-7.9-22.89-4.38-4.79-8.98-7.19-13.8-7.19-6.46,0-11.09,2.97-13.91,8.92-2.82,5.95-4.23,14.91-4.23,26.88s1.52,20.63,4.56,26.65c3.04,6.02,7.68,9.03,13.91,9.03,7.05,0,12.47-2.07,16.25-6.22,4.53-4.88,6.79-12.73,6.79-23.53h.89Z"/>
        <path class="cls-4" d="M455.32,785.57c0,7.18-2.48,13.14-7.44,17.87-4.51,4.29-9.58,6.44-15.21,6.44s-10.8-2-15.1-5.99c-5.03-4.66-7.55-10.77-7.55-18.31s2.48-13.1,7.44-17.76c4.51-4.22,9.58-6.33,15.21-6.33s10.73,2,15.1,5.99c5.03,4.59,7.55,10.62,7.55,18.09ZM443.78,785.57c0-8.21-.7-13.99-2.11-17.32-1.63-3.85-4.63-5.77-8.99-5.77-4,0-6.85,1.85-8.55,5.55-1.7,3.7-2.55,9.55-2.55,17.54s.76,14.06,2.28,17.76c1.52,3.7,4.46,5.55,8.82,5.55,4,0,6.84-1.89,8.55-5.66,1.7-3.77,2.55-9.66,2.55-17.65Z"/>
        <path class="cls-4" d="M466.03,796.34c1.94,0,3.56.65,4.87,1.94,1.3,1.3,1.96,2.91,1.96,4.83s-.65,3.54-1.96,4.83c-1.31,1.29-2.93,1.94-4.87,1.94s-3.56-.65-4.87-1.94c-1.31-1.29-1.96-2.9-1.96-4.83s.65-3.53,1.96-4.83c1.3-1.29,2.93-1.94,4.87-1.94Z"/>
        <path class="cls-4" d="M476.73,826.86c4.14-2.15,7.21-5.14,9.21-8.99,1.7-3.18,2.41-6.22,2.12-9.1-.44.37-.94.65-1.5.83-.56.18-1.13.28-1.72.28-1.48,0-2.78-.52-3.88-1.55-1.11-1.04-1.67-2.33-1.67-3.89,0-2,.61-3.68,1.83-5.05,1.22-1.37,2.98-2.05,5.27-2.05,2.04,0,3.64.82,4.8,2.44,1.16,1.63,1.75,3.81,1.75,6.55,0,4.88-1.09,8.99-3.26,12.32-2.42,3.7-6.52,6.92-12.29,9.66l-.67-1.44Z"/>
        <path class="cls-4" d="M353.28,896.55c8.93,0,15.75-2.73,20.48-8.19,4.72-5.46,7.09-13.72,7.09-24.78h1.44v34.3h-72.59v-1.11c3.26,0,6.03-.11,8.33-.33,2.29-.22,3.87-.5,4.72-.84.85-.33,1.4-.74,1.67-1.22.26-.48.39-1.76.39-3.84v-57.02c0-2.15-.15-3.49-.44-4.01-.15-.3-.65-.59-1.5-.89-.85-.3-2.52-.59-4.99-.89-2.48-.3-5.2-.45-8.16-.45v-1h45.62v1c-4.14,0-7.38.11-9.71.33-2.33.22-3.98.52-4.94.89-.96.37-1.52.71-1.67,1-.37.67-.56,2-.56,4.01v56.9c0,2.15.15,3.53.44,4.12.15.3.59.59,1.33.89,2.51.74,6.86,1.11,13.06,1.11Z"/>
        <path class="cls-4" d="M416.69,874.24v5.11c0,1.7.04,3.33.11,4.88,0,5.18-.59,8.73-1.78,10.66-1.63,2.66-4.77,4-9.43,4s-7.7-1.07-9.77-3.22c-2.07-2.15-3.11-5.22-3.11-9.21v-31.52h-8.88v-1c6.07-1.49,10.64-5.02,13.72-10.59,2.47-4.46,3.71-9.48,3.71-15.05h1.89v23.42h12.77v3.22h-12.77v30.11c0,3.99.14,6.57.44,7.75.73,2.81,2.36,4.21,4.91,4.21,2.98,0,4.94-1.62,5.89-4.86.65-2.21.98-6.41.98-12.59v-5.3h1.33Z"/>
        <path class="cls-4" d="M453.1,882.49c0,3.62-.89,7.02-2.66,10.19-2.29,4.13-5.48,6.2-9.55,6.2-5.33,0-9.73-2.03-13.21-6.11-3.77-4.44-5.66-10.54-5.66-18.31,0-5.33,1.74-10.43,5.22-15.32,4.07-5.77,9.21-8.66,15.43-8.66,3.33,0,5.96,1.84,7.88,5.53,1.33,2.58,2.18,5.42,2.55,8.52v-31.47c0-1.48-.22-2.52-.67-3.11-.44-.59-1.07-.96-1.89-1.11-1.85-.37-5.99-.56-12.43-.56v-1l25.42-1.89v66.04c0,1.48.11,2.45.33,2.89.15.22.48.44,1,.67,1.55.52,4.59.78,9.1.78v1l-20.87,2.11v-16.39ZM452.55,874.34c0-7.43-.85-13.08-2.55-16.95-1.7-3.87-4.03-5.8-6.99-5.8-3.55,0-6.01,1.65-7.38,4.96-1.37,3.31-2.05,9.31-2.05,18.01,0,7.88.41,13.38,1.22,16.51,1.18,4.54,3.62,6.8,7.33,6.8,2.51,0,4.77-1.9,6.77-5.69,2.44-4.54,3.66-10.48,3.66-17.85Z"/>
        <path class="cls-4" d="M485.12,885.34c1.94,0,3.56.65,4.87,1.94,1.3,1.3,1.96,2.91,1.96,4.83s-.65,3.54-1.96,4.83c-1.31,1.29-2.93,1.94-4.87,1.94s-3.56-.65-4.87-1.94c-1.31-1.29-1.96-2.9-1.96-4.83s.65-3.53,1.96-4.83c1.3-1.29,2.93-1.94,4.87-1.94Z"/>
      </g>
      <path class="cls-2" d="M183.99,155.3V54.22c0-19.58-3.33-33.03-9.99-40.35-6.66-7.32-18.68-10.98-36.07-10.98V0h91.47v2.9c-15.25,0-25.88,3.66-31.89,10.97-6.01,7.31-9.02,20.75-9.02,40.32v166.18h-7.73L52.88,38.97l-3.53-4.19c-.64,0-.96,1.94-.96,5.81v116.54c0,23.66,3.2,39.37,9.61,47.11,6.41,7.74,18.38,11.62,35.9,11.62v3.22H.08v-3.22c16.75,0,28.23-3.44,34.46-10.34,6.23-6.89,9.34-20.46,9.34-40.71V43.61c0-12.06-3.22-21.54-9.66-28.43C26.49,6.99,15.11,2.9.08,2.9V0h66.67l111.15,156.28c2.77,3.65,4.48,5.48,5.12,5.48s.96-2.15.96-6.46Z"/>
      <path class="cls-2" d="M78.81,310.03v81.81c0,5.72.3,9.3.91,10.72.61,1.43,2.54,2.71,5.79,3.83s7.01,1.79,11.27,1.99c4.27.2,11.88.31,22.85.31,23.15,0,40.67-6.9,52.55-20.69,11.88-13.79,19.35-35.92,22.39-66.37h3.97v90.72H0v-3.05c18.12,0,30.14-1.12,36.05-3.37,2.03-.82,3.41-1.89,4.12-3.22.71-1.33,1.07-4.85,1.07-10.57v-156.9c0-5.92-.41-9.6-1.22-11.03-.41-.82-1.73-1.63-3.97-2.45-2.24-.82-6.83-1.63-13.75-2.45-6.93-.82-14.36-1.23-22.3-1.23v-2.75h188.47v76.37h-3.97c0-15.75-3.96-30.78-11.88-45.09-10.56-19.01-25.48-28.53-44.77-28.53-7.72,0-15.48.05-23.3.15-7.82.11-14.77,1.08-20.86,2.92-1.83.82-3.1,1.9-3.81,3.23-.71,1.34-1.06,4.97-1.06,10.92v71.66c21.06,0,34.12-2.14,39.19-6.42,7.69-6.51,13.06-24.03,16.1-52.54h3.66v120.35h-3.66c-3.04-27.9-8.31-45.1-15.8-51.62-5.27-4.48-18.43-6.72-39.49-6.72Z"/>
      <path class="cls-4" d="M99.7,411.08l63.91,176.91,53.39-176.91h105.16v3.42c-23.04,0-38.22,1.53-45.55,4.57-2.53,1.01-4.05,2.03-4.56,3.04-1.27,2.29-1.9,6.86-1.9,13.71v194.99c0,7.62.5,12.32,1.52,14.09.5,1.02,2.34,2.1,5.51,3.24,3.16,1.14,8.66,2.1,16.51,2.85,7.84.76,26.59,1.14,37.72,1.14v3.8h-155.79v-3.8c9.11,0,17.52-.38,25.25-1.14,7.72-.76,13.03-1.72,15.94-2.85,2.91-1.14,4.62-2.22,5.13-3.23,1.01-2.03,1.52-6.72,1.52-14.07l-.38-206.85c0-4.3-.5-6.46-1.51-6.46s-2.15,1.9-3.41,5.69l-69.32,232.72h-8.33l-81.82-232.72-3.03-5.68c-.76,0-1.14,2.15-1.14,6.45v159.07c0,28.1,3.73,46.63,11.2,55.62,7.46,8.98,21.58,13.48,42.33,13.48v3.8H.61v-3.8c17.71,0,30.24-4.56,37.58-13.7,7.34-9.14,11.01-24.63,11.01-46.46v-117.68c0-22.34-3.42-37.89-10.25-46.65-6.83-8.76-19.62-13.14-38.34-13.14v-3.8l99.08.38Z"/>
      <g>
        <g>
          <path class="cls-2" d="M420.58,178.05l6.82,18.88,5.7-18.88h11.22v.36c-2.46,0-4.08.16-4.86.49-.27.11-.43.22-.49.33-.14.24-.2.73-.2,1.46v20.81c0,.81.05,1.31.16,1.5.05.11.25.22.59.35.34.12.92.22,1.76.3.84.08,1.85.12,3.04.12v.41h-15.64v-.41c.97,0,1.87-.04,2.7-.12.82-.08,1.39-.18,1.7-.3.31-.12.49-.24.55-.35.11-.22.16-.72.16-1.5l-.04-22.08c0-.46-.05-.69-.16-.69s-.23.2-.36.61l-7.4,24.84h-.89l-8.73-24.84-.32-.61c-.08,0-.12.23-.12.69v16.98c0,3,.4,4.98,1.2,5.94.8.96,2.3,1.44,4.52,1.44v.41h-11.47v-.41c1.89,0,3.23-.49,4.01-1.46.78-.98,1.18-2.63,1.18-4.96v-12.56c0-2.38-.36-4.04-1.09-4.98-.73-.94-2.09-1.4-4.09-1.4v-.41l10.58.04Z"/>
          <path class="cls-2" d="M447.95,201.51v-20.81c0-.79-.05-1.27-.16-1.46-.05-.11-.24-.22-.55-.33-.31-.11-.92-.22-1.82-.33-.91-.11-1.9-.16-2.98-.16v-.36h25.04v10.13h-.53c0-2.09-.53-4.08-1.58-5.98-1.4-2.52-3.38-3.78-5.94-3.78-1.75,0-2.98.03-3.7.08-.71.05-1.43.19-2.16.41l-.36.16c-.19.19-.28.73-.28,1.63v9.51c2.87,0,4.66-.28,5.36-.85,1.13-.92,1.85-3.24,2.18-6.97h.49v15.97h-.49c0-3.65-.62-5.93-1.85-6.85-.78-.59-2.67-.89-5.68-.89v10.89c0,.79.05,1.29.16,1.5.05.11.24.22.57.35.32.12.95.22,1.88.3.93.08,2.19.12,3.79.12v.41h-16.9v-.41c1.16,0,2.17-.04,3.02-.12.85-.08,1.43-.18,1.74-.3.31-.12.51-.27.61-.45.09-.18.14-.64.14-1.4Z"/>
          <path class="cls-1" d="M484.86,179.81c1.64-1.38,2.55-2.15,2.75-2.31v8.83s-.34-.12-.34-.12c-.39-2.37-1.42-4.35-3.08-5.95,0,0-1.33-1.56-4.56-2.33-1.42-.34-2.75-.14-3.92.32-1.44.55-2.3,1.57-2.57,3.06-.26,1.43.23,2.72,1.47,3.86,1.05.97,2.83,1.97,5.35,3,3.25,1.37,5.34,2.51,6.26,3.4,1.49,1.49,1.98,3.62,1.47,6.41-.48,2.63-1.74,4.51-3.78,5.65-1.72.97-3.65,1.27-5.78.91-3.49-.58-6.01-3.21-6.01-3.21-1.69,2.13-2.57,3.24-2.66,3.32v-11.18s.34-.04.34-.04c.53,2.32,1.14,4.19,1.81,5.59.56,1.19,1.22,2.18,1.98,2.96,2.53,2.09,4.73,2.23,4.73,2.23,1.3.22,2.57.01,3.8-.63,1.42-.75,2.26-1.83,2.53-3.27.32-1.75-.27-3.28-1.77-4.57-1.03-.89-2.92-1.95-5.67-3.2-2.75-1.25-4.62-2.36-5.6-3.35-1.44-1.48-1.95-3.37-1.53-5.66.38-2.05,1.45-3.66,3.23-4.83,1.78-1.17,3.72-1.65,5.8-1.29,0,0,2.42.27,5.75,2.4Z"/>
          <path class="cls-2" d="M500.71,195.07h-7.81l-1.25,3.58c-.32.9-.48,1.67-.48,2.32,0,1,.38,1.72,1.14,2.16.76.43,1.82.65,3.2.65v.41h-10.29v-.41c1.86,0,3.31-.7,4.34-2.11.57-.78,1.3-2.41,2.19-4.87l6.85-19.08h.81l8.75,23.78c.41,1.11.81,1.77,1.22,1.97.41.2,1.62.3,3.65.3v.41h-14.95v-.41c2.03,0,3.42-.07,4.17-.22.76-.15,1.14-.45,1.14-.92l-.08-.41-2.58-7.17ZM500.51,194.63l-3.7-10.32-3.7,10.32h7.41Z"/>
        </g>
        <g>
          <path class="cls-2" d="M492.2,13.98s1.43,1.14,2,8.27c.71,8.87-.15,15.27-.57,21.1-.42,5.82-2.17,9.11-6.51,21.18-4.34,12.07-4.44,11.89-6.44,17.33-2,5.44-2.72,6.9-5.63,12.52-2.9,5.63-6.53,11.8-7.26,20.87-.73,9.07,1.09,14.7-.54,22.87-1.63,8.17-5.44,18.87-6.9,27.4h28.67s-3.09-26.68-3.99-39.56c-.91-12.88-2.72-15.43,1.45-20.87,4.17-5.44,6.9-9.26,9.62-24.5,2.72-15.24,2.84-23.55,3.93-28.26,1.09-4.72,5.84-10.12,5.84-10.12l-4.33-25.31-9.35-2.91Z"/>
          <path class="cls-3" d="M492.61,16.79s-1.96-5.22-2.93-6.78c-.98-1.56-.49-1.88.68-1.56,1.17.31,12.32,4.69,15.65,8.03,0,0,1.08.42.98,3.65-.1,3.23-.59,5.74,0,8.24l3.91-7.72s.59-.52.98-.21.78.42.1,2.29c-.68,1.88-2.84,7.09-2.84,7.09,0,0-.98,1.56-.88,2.92.1,1.36.68,6.05-.1,7.09s-3.33,3.96-6.26,5.63-4.6-4.49-4.69-7.41c-.1-2.92-.49-11.26-4.6-21.28Z"/>
          <path class="cls-2" d="M430.82,13.98s-1.43,1.14-2,8.27c-.71,8.87.15,15.27.57,21.1.42,5.82,2.17,9.11,6.51,21.18,4.34,12.07,4.44,11.89,6.44,17.33,2,5.44,2.72,6.9,5.63,12.52,2.9,5.63,6.53,11.8,7.26,20.87.73,9.07-1.09,14.7.54,22.87,1.63,8.17,5.44,18.87,6.9,27.4h-28.67s3.09-26.68,3.99-39.56c.91-12.88,2.72-15.43-1.45-20.87-4.17-5.44-6.9-9.26-9.62-24.5-2.72-15.24-2.84-23.55-3.93-28.26-1.09-4.72-5.84-10.12-5.84-10.12l4.33-25.31,9.35-2.91Z"/>
          <path class="cls-3" d="M430.41,16.79s1.96-5.22,2.93-6.78c.98-1.56.49-1.88-.68-1.56s-12.32,4.69-15.65,8.03c0,0-1.08.42-.98,3.65.1,3.23.59,5.74,0,8.24l-3.91-7.72s-.59-.52-.98-.21-.78.42-.1,2.29c.68,1.88,2.84,7.09,2.84,7.09,0,0,.98,1.56.88,2.92-.1,1.36-.68,6.05.1,7.09.78,1.04,3.33,3.96,6.26,5.63s4.6-4.49,4.69-7.41.49-11.26,4.6-21.28Z"/>
        </g>
      </g>
    </g>
  </g>
</svg>