<?xml version="1.0" encoding="UTF-8"?>
<svg id="_レイヤー_2" data-name="レイヤー 2" xmlns="http://www.w3.org/2000/svg" viewBox="0 0 327.01 505.53">
  <defs>
    <style>
      .cls-1 {
        fill: #231815;
      }

      .cls-1, .cls-2 {
        stroke-width: 0px;
      }

      .cls-2 {
        fill: #e62066;
      }
    </style>
  </defs>
  <g id="_レイヤー_1-2" data-name="レイヤー 1">
    <g>
      <path class="cls-1" d="M262.2,18.17s4.58,3.67,6.42,26.59c2.28,28.53-.47,49.12-1.83,67.85-1.36,18.73-6.97,29.3-20.93,68.12-13.96,38.82-14.28,38.24-20.7,55.75-6.42,17.51-8.75,22.18-18.09,40.27-9.34,18.09-21.01,37.94-23.35,67.12-2.33,29.18,3.5,47.27-1.75,73.54-5.25,26.26-17.51,60.7-22.18,88.13h92.21s-9.92-85.79-12.84-127.23c-2.92-41.44-8.75-49.61,4.67-67.12,13.42-17.51,22.18-29.77,30.93-78.79,8.75-49.03,9.15-75.72,12.65-90.9,3.5-15.17,18.8-32.55,18.8-32.55l-13.94-81.41-30.07-9.36Z"/>
      <path class="cls-2" d="M263.53,27.19s-6.29-16.77-9.44-21.8c-3.15-5.03-1.57-6.04,2.2-5.03,3.77,1.01,39.63,15.09,50.33,25.83,0,0,3.46,1.34,3.15,11.74-.31,10.4-1.89,18.45,0,26.5l12.58-24.82s1.89-1.68,3.15-.67c1.26,1.01,2.52,1.34.31,7.38-2.2,6.04-9.12,22.81-9.12,22.81,0,0-3.15,5.03-2.83,9.39.31,4.36,2.2,19.46-.31,22.81-2.52,3.35-10.69,12.75-20.13,18.11-9.44,5.37-14.78-14.42-15.1-23.82-.31-9.39-1.57-36.23-14.78-68.43Z"/>
      <path class="cls-1" d="M64.81,18.17s-4.58,3.67-6.42,26.59c-2.28,28.53.47,49.12,1.83,67.85,1.36,18.73,6.97,29.3,20.93,68.12,13.96,38.82,14.28,38.24,20.7,55.75,6.42,17.51,8.75,22.18,18.09,40.27,9.34,18.09,21.01,37.94,23.35,67.12,2.33,29.18-3.5,47.27,1.75,73.54,5.25,26.26,17.51,60.7,22.18,88.13h-92.21s9.92-85.79,12.84-127.23c2.92-41.44,8.75-49.61-4.67-67.12-13.42-17.51-22.18-29.77-30.93-78.79-8.75-49.03-9.15-75.72-12.65-90.9-3.5-15.17-18.8-32.55-18.8-32.55l13.94-81.41,30.07-9.36Z"/>
      <path class="cls-2" d="M63.48,27.19s6.29-16.77,9.44-21.8c3.15-5.03,1.57-6.04-2.2-5.03S31.09,15.45,20.39,26.18c0,0-3.46,1.34-3.15,11.74.31,10.4,1.89,18.45,0,26.5l-12.58-24.82s-1.89-1.68-3.15-.67c-1.26,1.01-2.52,1.34-.31,7.38,2.2,6.04,9.12,22.81,9.12,22.81,0,0,3.15,5.03,2.83,9.39-.31,4.36-2.2,19.46.31,22.81,2.52,3.35,10.69,12.75,20.13,18.11,9.44,5.37,14.78-14.42,15.1-23.82.31-9.39,1.57-36.23,14.78-68.43Z"/>
    </g>
  </g>
</svg>