<?xml version="1.0" encoding="UTF-8"?>
<svg id="_レイヤー_2" data-name="レイヤー 2" xmlns="http://www.w3.org/2000/svg" viewBox="0 0 130.27 89.79">
  <defs>
    <style>
      .cls-1 {
        fill: #e50032;
        stroke-width: 0px;
      }
    </style>
  </defs>
  <g id="_レイヤー_1-2" data-name="レイヤー 1">
    <g>
      <path class="cls-1" d="M120.23,1.14c-.62-1.42-1.83-1.53-2.69-.24l-10.66,15.86c-.86,1.28-.47,1.7.86.92l13.3-7.72c1.34-.78,1.92-2.57,1.31-3.99l-2.11-4.84Z"/>
      <path class="cls-1" d="M115.03,21.97c-1.54-.17-1.57-.61-.07-.99l6.82-1.69c1.5-.37,2.57.3,2.39,1.49s-1.6,2.03-3.13,1.86l-6.01-.66Z"/>
      <path class="cls-1" d="M92.21,21.25c-14.48-15.54-18.38,7.99-27.66,8.23-9.29.23-14.34-23.09-28.04-6.85C12.39,51.21-.06,52.56,0,55.03c.06,2.48,12.66,3.97,23.72,15.94,13.64,14.75,23.99,19.24,42.31,18.79,18.32-.45,28.44-5.45,41.34-20.86,10.46-12.5,22.96-14.61,22.9-17.09-.06-2.48-12.56-3.2-38.06-30.57ZM84.62,22.36c9.9,2.39,11.99,11.62,7.89,8.33-5.5-4.41-13.01-3.05-12.68-6,.33-2.95,4.79-2.33,4.79-2.33ZM87.37,59.64c-5.6,3.86-10.03,6.91-21.9,7.2-11.88.29-16.45-2.54-22.24-6.12-3.13-1.94-6.52-4.03-11.33-5.9,5.69-1.31,10.04-3.11,16.3-6.88,3.99-2.4,7.47-.99,10.69.77,1.95,1.05,3.96,2.15,6.18,2.1,2.21-.05,4.17-1.24,6.06-2.4,3.14-1.92,6.54-3.5,10.64-1.29,6.44,3.46,10.87,5.04,16.62,6.07-4.71,2.11-7.99,4.37-11.02,6.46Z"/>
    </g>
  </g>
</svg>