<?xml version="1.0" encoding="UTF-8"?>
<svg id="_レイヤー_2" data-name="レイヤー 2" xmlns="http://www.w3.org/2000/svg" viewBox="0 0 331.27 669.39">
  <defs>
    <style>
      .cls-1, .cls-2 {
        fill: #231815;
      }

      .cls-1, .cls-3 {
        stroke-width: 0px;
      }

      .cls-2 {
        stroke: #231815;
        stroke-miterlimit: 10;
        stroke-width: .59px;
      }

      .cls-3 {
        fill: #e62066;
      }
    </style>
  </defs>
  <g id="_レイヤー_1-2" data-name="レイヤー 1">
    <g>
      <g>
        <path class="cls-1" d="M133.19,655.99c0,2.92-.56,5.05-1.68,6.38-1.12,1.33-2.74,2-4.85,2-2.4,0-4.43-.73-6.08-2.18-1.98-1.73-2.96-4.22-2.96-7.47s1-5.76,3-7.77c1.72-1.73,3.56-2.6,5.52-2.6.95,0,1.78.17,2.49.51.91.44,1.74,1.17,2.48,2.18l1.49-2.84h.15v8.77l-.24-.15c0-2.59-.72-4.67-2.15-6.24-1.19-1.31-2.45-1.96-3.76-1.96-1.76,0-3.02.81-3.79,2.43s-1.15,4.06-1.15,7.32.41,5.62,1.24,7.26c.83,1.64,2.09,2.46,3.79,2.46,1.92,0,3.4-.56,4.43-1.69,1.23-1.33,1.85-3.47,1.85-6.41h.24Z"/>
        <path class="cls-1" d="M147.1,657.75c0,1.96-.68,3.58-2.03,4.87-1.23,1.17-2.61,1.75-4.14,1.75s-2.94-.54-4.11-1.63c-1.37-1.27-2.06-2.93-2.06-4.99s.68-3.57,2.03-4.84c1.23-1.15,2.61-1.72,4.14-1.72s2.92.54,4.11,1.63c1.37,1.25,2.06,2.89,2.06,4.93ZM143.96,657.75c0-2.24-.19-3.81-.57-4.72-.44-1.05-1.26-1.57-2.45-1.57-1.09,0-1.87.5-2.33,1.51-.46,1.01-.7,2.6-.7,4.78s.21,3.83.62,4.84c.41,1.01,1.21,1.51,2.41,1.51,1.09,0,1.87-.51,2.33-1.54s.7-2.63.7-4.81Z"/>
        <path class="cls-1" d="M150.02,660.68c.53,0,.97.18,1.33.53.36.35.53.79.53,1.32s-.18.96-.53,1.32c-.36.35-.8.53-1.33.53s-.97-.18-1.33-.53c-.36-.35-.53-.79-.53-1.32s.18-.96.53-1.32c.36-.35.8-.53,1.33-.53Z"/>
        <path class="cls-1" d="M152.94,669c1.13-.58,1.97-1.4,2.51-2.45.46-.87.66-1.69.58-2.48-.12.1-.26.18-.41.23-.15.05-.31.08-.47.08-.4,0-.76-.14-1.06-.42-.3-.28-.45-.63-.45-1.06,0-.54.17-1,.5-1.38s.81-.56,1.44-.56c.56,0,.99.22,1.31.67.32.44.48,1.04.48,1.79,0,1.33-.3,2.45-.89,3.36-.66,1.01-1.78,1.88-3.35,2.63l-.18-.39Z"/>
        <path class="cls-1" d="M172.96,663.73c2.43,0,4.29-.74,5.58-2.23,1.29-1.49,1.93-3.74,1.93-6.75h.39v9.35h-19.78v-.3c.89,0,1.64-.03,2.27-.09s1.05-.14,1.29-.23c.23-.09.38-.2.45-.33.07-.13.11-.48.11-1.05v-15.54c0-.59-.04-.95-.12-1.09-.04-.08-.18-.16-.41-.24-.23-.08-.69-.16-1.36-.24-.68-.08-1.42-.12-2.22-.12v-.27h12.43v.27c-1.13,0-2.01.03-2.65.09-.63.06-1.08.14-1.35.24-.26.1-.41.19-.45.27-.1.18-.15.55-.15,1.09v15.51c0,.59.04.96.12,1.12.04.08.16.16.36.24.68.2,1.87.3,3.56.3Z"/>
        <path class="cls-1" d="M190.24,657.65v1.39c0,.46,0,.91.03,1.33,0,1.41-.16,2.38-.48,2.9-.44.73-1.3,1.09-2.57,1.09s-2.1-.29-2.66-.88-.85-1.42-.85-2.51v-8.59h-2.42v-.27c1.65-.41,2.9-1.37,3.74-2.89.67-1.22,1.01-2.58,1.01-4.1h.51v6.38h3.48v.88h-3.48v8.21c0,1.09.04,1.79.12,2.11.2.76.64,1.15,1.34,1.15.81,0,1.35-.44,1.6-1.32.18-.6.27-1.75.27-3.43v-1.44h.36Z"/>
        <path class="cls-1" d="M200.16,659.9c0,.99-.24,1.91-.73,2.78-.62,1.13-1.49,1.69-2.6,1.69-1.45,0-2.65-.55-3.6-1.66-1.03-1.21-1.54-2.87-1.54-4.99,0-1.45.47-2.84,1.42-4.17,1.11-1.57,2.51-2.36,4.2-2.36.91,0,1.62.5,2.15,1.51.36.7.59,1.48.7,2.32v-8.58c0-.4-.06-.69-.18-.85-.12-.16-.29-.26-.51-.3-.5-.1-1.63-.15-3.39-.15v-.27l6.93-.51v18c0,.4.03.67.09.79.04.06.13.12.27.18.42.14,1.25.21,2.48.21v.27l-5.69.58v-4.47ZM200.01,657.68c0-2.03-.23-3.57-.7-4.62-.46-1.05-1.1-1.58-1.91-1.58-.97,0-1.64.45-2.01,1.35-.37.9-.56,2.54-.56,4.91,0,2.15.11,3.65.33,4.5.32,1.24.99,1.85,2,1.85.69,0,1.3-.52,1.85-1.55.67-1.24,1-2.86,1-4.86Z"/>
        <path class="cls-1" d="M208.88,660.68c.53,0,.97.18,1.33.53.36.35.53.79.53,1.32s-.18.96-.53,1.32c-.36.35-.8.53-1.33.53s-.97-.18-1.33-.53c-.36-.35-.53-.79-.53-1.32s.18-.96.53-1.32c.36-.35.8-.53,1.33-.53Z"/>
      </g>
      <g>
        <path class="cls-1" d="M34.01,545.83l21.94,60.73,18.33-60.73h36.1v1.17c-7.91,0-13.12.52-15.64,1.57-.87.35-1.39.7-1.56,1.05-.44.79-.65,2.35-.65,4.71v66.94c0,2.62.17,4.23.52,4.84.17.35.8.72,1.89,1.11,1.08.39,2.97.72,5.67.98,2.69.26,5.95.39,9.77.39v1.3h-50.31v-1.3c3.13,0,6.02-.13,8.67-.39,2.65-.26,4.47-.59,5.47-.98,1-.39,1.58-.76,1.76-1.11.35-.7.52-2.31.52-4.83l-.13-71.01c0-1.48-.17-2.22-.52-2.22s-.74.65-1.17,1.95l-23.8,79.89h-2.86l-28.09-79.89-1.04-1.95c-.26,0-.39.74-.39,2.21v54.61c0,9.65,1.28,16.01,3.85,19.09,2.56,3.08,7.41,4.63,14.53,4.63v1.3H0v-1.3c6.08,0,10.38-1.57,12.9-4.7,2.52-3.14,3.78-8.46,3.78-15.95v-40.4c0-7.67-1.17-13.01-3.52-16.02-2.34-3.01-6.73-4.51-13.16-4.51v-1.3l34.01.13Z"/>
        <path class="cls-1" d="M122.03,621.27v-66.94c0-2.53-.18-4.1-.52-4.71-.18-.35-.76-.7-1.76-1.05-1-.35-2.96-.69-5.86-1.05-2.91-.35-6.1-.52-9.58-.52v-1.17h80.54v32.58h-1.69c0-6.72-1.69-13.13-5.07-19.24-4.5-8.11-10.87-12.17-19.1-12.17-5.63,0-9.59.09-11.89.26-2.3.18-4.61.61-6.95,1.31l-1.17.53c-.61.61-.91,2.36-.91,5.25v30.58c9.25,0,14.99-.91,17.24-2.74,3.63-2.95,5.96-10.43,7-22.41h1.56v51.35h-1.56c0-11.73-1.99-19.07-5.96-22.02-2.51-1.91-8.6-2.87-18.28-2.87v35.03c0,2.53.17,4.14.52,4.84.17.35.78.72,1.82,1.11,1.04.39,3.06.72,6.06.98,3,.26,7.06.39,12.19.39v1.3h-54.34v-1.3c3.73,0,6.97-.13,9.71-.39,2.74-.26,4.6-.59,5.6-.98,1-.39,1.65-.87,1.96-1.44.3-.57.46-2.07.46-4.51Z"/>
        <path class="cls-2" d="M240.76,551.47c5.26-4.43,8.2-6.91,8.84-7.43v28.41s-1.08-.39-1.08-.39c-1.27-7.61-4.57-13.98-9.91-19.13,0,0-4.28-5.02-14.66-7.48-4.57-1.08-8.83-.44-12.59,1.04-4.64,1.77-7.4,5.04-8.28,9.83-.85,4.61.73,8.76,4.73,12.43,3.37,3.13,9.1,6.34,17.2,9.65,10.46,4.41,17.17,8.06,20.12,10.94,4.8,4.78,6.38,11.65,4.73,20.62-1.55,8.46-5.61,14.51-12.15,18.16-5.53,3.12-11.73,4.08-18.59,2.93-11.21-1.88-19.34-10.34-19.34-10.34-5.43,6.86-8.28,10.43-8.55,10.69v-35.97s1.09-.13,1.09-.13c1.72,7.47,3.66,13.47,5.84,17.98,1.81,3.83,3.93,7,6.38,9.51,8.13,6.73,15.2,7.16,15.2,7.16,4.19.71,8.26.04,12.22-2.03,4.57-2.4,7.28-5.9,8.13-10.52,1.04-5.64-.86-10.54-5.69-14.7-3.33-2.85-9.41-6.28-18.25-10.29-8.84-4.01-14.85-7.6-18.02-10.78-4.62-4.76-6.26-10.82-4.91-18.19,1.21-6.6,4.67-11.78,10.38-15.54,5.71-3.76,11.96-5.29,18.65-4.16,0,0,7.78.87,18.5,7.72Z"/>
        <path class="cls-1" d="M291.71,600.57h-25.11l-4.01,11.52c-1.04,2.88-1.56,5.37-1.56,7.46,0,3.23,1.22,5.54,3.65,6.94,2.43,1.4,5.86,2.09,10.29,2.09v1.3h-33.1v-1.3c5.99,0,10.64-2.26,13.94-6.79,1.83-2.52,4.17-7.74,7.04-15.66l22.02-61.35h2.61l28.15,76.49c1.3,3.57,2.61,5.68,3.91,6.33,1.3.65,5.21.98,11.73.98v1.3h-48.09v-1.3c6.51,0,10.99-.24,13.42-.72,2.43-.48,3.65-1.46,3.65-2.94l-.26-1.31-8.29-23.04ZM291.06,599.13l-11.91-33.18-11.91,33.18h23.82Z"/>
      </g>
      <g>
        <path class="cls-1" d="M264.33,18.17s4.58,3.67,6.42,26.59c2.28,28.53-.47,49.12-1.83,67.85-1.36,18.73-6.97,29.3-20.93,68.12-13.96,38.82-14.28,38.24-20.7,55.75-6.42,17.51-8.75,22.18-18.09,40.27-9.34,18.09-21.01,37.94-23.35,67.12-2.33,29.18,3.5,47.27-1.75,73.54-5.25,26.26-17.51,60.7-22.18,88.13h92.21s-9.92-85.79-12.84-127.23c-2.92-41.44-8.75-49.61,4.67-67.12,13.42-17.51,22.18-29.77,30.93-78.79,8.75-49.03,9.15-75.72,12.65-90.9,3.5-15.17,18.8-32.55,18.8-32.55l-13.94-81.41-30.07-9.36Z"/>
        <path class="cls-3" d="M265.66,27.19s-6.29-16.77-9.44-21.8c-3.15-5.03-1.57-6.04,2.2-5.03,3.77,1.01,39.63,15.09,50.33,25.83,0,0,3.46,1.34,3.15,11.74-.31,10.4-1.89,18.45,0,26.5l12.58-24.82s1.89-1.68,3.15-.67c1.26,1.01,2.52,1.34.31,7.38-2.2,6.04-9.12,22.81-9.12,22.81,0,0-3.15,5.03-2.83,9.39.31,4.36,2.2,19.46-.31,22.81-2.52,3.35-10.69,12.75-20.13,18.11-9.44,5.37-14.78-14.42-15.1-23.82-.31-9.39-1.57-36.23-14.78-68.43Z"/>
        <path class="cls-1" d="M66.94,18.17s-4.58,3.67-6.42,26.59c-2.28,28.53.47,49.12,1.83,67.85,1.36,18.73,6.97,29.3,20.93,68.12,13.96,38.82,14.28,38.24,20.7,55.75,6.42,17.51,8.75,22.18,18.09,40.27,9.34,18.09,21.01,37.94,23.35,67.12,2.33,29.18-3.5,47.27,1.75,73.54,5.25,26.26,17.51,60.7,22.18,88.13h-92.21s9.92-85.79,12.84-127.23c2.92-41.44,8.75-49.61-4.67-67.12-13.42-17.51-22.18-29.77-30.93-78.79-8.75-49.03-9.15-75.72-12.65-90.9-3.5-15.17-18.8-32.55-18.8-32.55l13.94-81.41,30.07-9.36Z"/>
        <path class="cls-3" d="M65.62,27.19s6.29-16.77,9.44-21.8c3.15-5.03,1.57-6.04-2.2-5.03S33.22,15.45,22.52,26.18c0,0-3.46,1.34-3.15,11.74.31,10.4,1.89,18.45,0,26.5l-12.58-24.82s-1.89-1.68-3.15-.67c-1.26,1.01-2.52,1.34-.31,7.38,2.2,6.04,9.12,22.81,9.12,22.81,0,0,3.15,5.03,2.83,9.39-.31,4.36-2.2,19.46.31,22.81,2.52,3.35,10.69,12.75,20.13,18.11,9.44,5.37,14.78-14.42,15.1-23.82.31-9.39,1.57-36.23,14.78-68.43Z"/>
      </g>
    </g>
  </g>
</svg>